<?xml version="1.0" standalone="no"?><!DOCTYPE svg PUBLIC "-//W3C//DTD SVG 1.1//EN" "http://www.w3.org/Graphics/SVG/1.1/DTD/svg11.dtd"><svg height="1024" node-id="1" sillyvg="true" template-height="1024" template-width="1024" version="1.1" viewBox="0 0 1024 1024" width="1024" xmlns="http://www.w3.org/2000/svg" xmlns:xlink="http://www.w3.org/1999/xlink"><defs node-id="43"><linearGradient gradientUnits="objectBoundingBox" id="linear-gradient" node-id="5" spreadMethod="pad" x1="0.5" x2="0.506" y1="0" y2="0.766"><stop offset="0" stop-color="#f8f8f8" stop-opacity="0.71"></stop><stop offset="1" stop-color="#e2e7f2" stop-opacity="0"></stop></linearGradient><linearGradient gradientUnits="objectBoundingBox" id="linear-gradient-2" node-id="8" spreadMethod="pad" x1="0.5" x2="0.5" y1="0" y2="0.522"><stop offset="0" stop-color="#f8f8f8"></stop><stop offset="1" stop-color="#e2e7f2" stop-opacity="0"></stop></linearGradient><linearGradient gradientUnits="objectBoundingBox" id="linear-gradient-3" node-id="11" spreadMethod="pad" x1="0.765" x2="0.338" y1="-0.019" y2="1.006"><stop offset="0" stop-color="#f8f8f8"></stop><stop offset="1" stop-color="#e2e7f2" stop-opacity="0"></stop></linearGradient><linearGradient gradientUnits="objectBoundingBox" id="linear-gradient-4" node-id="12" spreadMethod="pad" x1="0.7653618" x2="0.65030736" y1="-0.019008985" y2="0.8153854"><stop offset="0" stop-color="#f8f8f8"></stop><stop offset="1" stop-color="#e2e7f2" stop-opacity="0"></stop></linearGradient><linearGradient gradientUnits="objectBoundingBox" id="linear-gradient-5" node-id="13" spreadMethod="pad" x1="0.694" x2="-0.03" y1="0.463" y2="0.605"><stop offset="0" stop-color="#eaeef2"></stop><stop offset="1" stop-color="#e1e6ed"></stop></linearGradient><linearGradient gradientUnits="objectBoundingBox" id="linear-gradient-6" node-id="16" spreadMethod="pad" x1="1" x2="-0.099" y1="0.471" y2="0.454"><stop offset="0" stop-color="#eaeef2"></stop><stop offset="1" stop-color="#e1e6ed"></stop></linearGradient><linearGradient gradientUnits="objectBoundingBox" id="linear-gradient-7" node-id="17" spreadMethod="pad" x1="0.731" x2="0.731" y1="0.953" y2="0.217"><stop offset="0" stop-color="#f8f8f8"></stop><stop offset="1" stop-color="#e2e7f2"></stop></linearGradient><linearGradient gradientUnits="objectBoundingBox" id="linear-gradient-8" node-id="20" spreadMethod="pad" x1="0.305" x2="0.325" y1="0.937" y2="0.144"><stop offset="0" stop-color="#f8f8f8"></stop><stop offset="1" stop-color="#e2e7f2"></stop></linearGradient><linearGradient gradientUnits="objectBoundingBox" id="linear-gradient-9" node-id="21" spreadMethod="pad" x1="0.49999923" x2="0.49999923" y1="0" y2="0.99999845"><stop offset="0" stop-color="#f8f8f8"></stop><stop offset="1" stop-color="#e2e7f2"></stop></linearGradient><linearGradient gradientUnits="objectBoundingBox" id="linear-gradient-11" node-id="22" spreadMethod="pad" x1="0.5" x2="0.5" y1="0" y2="1"><stop offset="0" stop-color="#f8f8f8"></stop><stop offset="1" stop-color="#e2e7f2" stop-opacity="0"></stop></linearGradient></defs><g node-id="104"><path d="M 0.00 0.00 L 1024.00 0.00 L 1024.00 1024.00 L 0.00 1024.00 Z" fill="#ffffff" fill-opacity="0" fill-rule="nonzero" group-id="1" id="矩形_343" node-id="24" stroke="none" target-height="1024" target-width="1024" target-x="0" target-y="0"></path></g><g node-id="105"><g node-id="106"><path d="M 92.78 779.08 L 91.77 774.56 L 89.18 762.17 L 85.65 743.67 L 81.84 720.83 L 80.04 708.43 L 78.39 695.40 L 77.01 682.26 L 75.96 669.15 L 75.32 656.14 L 75.18 643.83 L 75.41 635.69 L 75.93 628.16 L 76.71 621.21 L 77.90 614.31 L 79.41 608.29 L 81.21 603.06 L 82.95 599.24 L 84.89 596.02 L 87.01 593.33 L 89.31 591.12 L 92.63 588.71 L 95.82 586.86 L 98.90 585.51 L 101.90 584.63 L 106.07 583.99 L 110.13 583.98 L 114.11 584.59 L 118.01 585.72 L 121.81 587.29 L 125.54 589.30 L 130.83 592.88 L 135.79 597.01 L 140.39 601.51 L 144.46 606.02 L 148.17 610.58 L 151.14 614.59 L 155.45 620.99 L 156.97 623.51 L 155.83 619.42 L 152.93 608.26 L 149.11 591.70 L 147.13 582.08 L 145.16 571.39 L 143.40 560.41 L 141.90 548.99 L 140.79 537.49 L 140.15 526.17 L 140.04 518.63 L 140.24 511.44 L 140.72 504.59 L 141.59 497.77 L 142.84 491.56 L 144.43 485.90 L 145.99 481.74 L 147.79 478.03 L 149.82 474.72 L 152.08 471.78 L 154.69 469.15 L 157.61 466.97 L 160.86 465.21 L 164.49 463.88 L 168.29 463.13 L 171.95 462.93 L 175.53 463.28 L 179.06 464.16 L 182.45 465.49 L 185.81 467.26 L 189.18 469.49 L 192.56 472.23 L 196.69 476.24 L 200.79 480.89 L 204.88 486.26 L 208.64 491.86 L 212.32 497.90 L 215.91 504.40 L 220.89 514.40 L 225.54 524.81 L 229.83 535.35 L 233.67 545.64 L 237.19 555.80 L 240.18 565.05 L 244.97 581.19 L 247.92 592.23 L 248.93 596.32 L 248.47 592.24 L 247.66 581.39 L 247.39 574.32 L 247.36 565.90 L 247.66 557.17 L 248.43 547.87 L 249.24 541.64 L 250.35 535.49 L 251.75 529.41 L 253.52 523.45 L 255.66 517.87 L 258.17 512.64 L 260.38 508.90 L 262.85 505.50 L 265.57 502.43 L 268.55 499.67 L 271.81 497.28 L 275.41 495.31 L 279.38 493.75 L 283.77 492.60 L 287.31 492.29 L 290.86 492.61 L 294.47 493.58 L 298.20 495.26 L 301.63 497.35 L 305.17 499.99 L 308.81 503.24 L 312.57 507.16 L 317.15 512.61 L 321.81 518.89 L 326.56 526.07 L 330.99 533.42 L 335.41 541.30 L 339.80 549.74 L 346.01 562.62 L 351.95 575.93 L 357.55 589.36 L 362.67 602.40 L 367.46 615.24 L 371.62 626.89 L 378.43 647.16 L 382.77 660.97 L 384.30 666.07 Z" fill="url(#linear-gradient)" fill-rule="nonzero" group-id="2,3" id="路径_63" node-id="26" stroke="none" target-height="316.15002" target-width="309.12" target-x="75.18" target-y="462.93"></path></g><g node-id="107"><path d="M 998.23 809.00 L 997.97 813.35 L 997.21 817.69 L 995.95 822.04 L 994.14 826.44 L 991.76 830.91 L 988.76 835.46 L 984.92 840.31 L 980.31 845.24 L 974.86 850.27 L 968.48 855.41 L 961.07 860.66 L 953.88 865.22 L 945.86 869.83 L 936.96 874.48 L 927.10 879.17 L 916.22 883.90 L 903.04 889.10 L 888.55 894.27 L 872.65 899.39 L 855.26 904.46 L 836.87 909.29 L 817.35 913.90 L 796.64 918.29 L 775.89 922.23 L 754.18 925.91 L 731.51 929.31 L 708.81 932.31 L 685.37 935.00 L 661.17 937.37 L 636.96 939.36 L 612.21 941.01 L 586.93 942.32 L 561.64 943.25 L 536.04 943.81 L 510.11 944.00 L 484.19 943.81 L 458.58 943.25 L 433.30 942.32 L 408.01 941.01 L 383.27 939.36 L 359.06 937.37 L 334.86 935.00 L 311.42 932.31 L 288.72 929.31 L 266.04 925.91 L 244.34 922.23 L 223.58 918.29 L 202.88 913.90 L 183.35 909.29 L 164.97 904.46 L 147.58 899.39 L 131.68 894.27 L 117.19 889.10 L 104.01 883.90 L 93.13 879.17 L 83.27 874.48 L 74.36 869.83 L 66.35 865.22 L 59.16 860.66 L 51.75 855.41 L 45.37 850.27 L 39.92 845.24 L 35.31 840.31 L 31.47 835.46 L 28.46 830.91 L 26.09 826.44 L 24.28 822.04 L 23.02 817.69 L 22.26 813.35 L 22.00 809.00 L 22.26 804.65 L 23.02 800.31 L 24.28 795.96 L 26.09 791.56 L 28.46 787.09 L 31.47 782.54 L 35.31 777.69 L 39.92 772.76 L 45.37 767.73 L 51.75 762.59 L 59.16 757.34 L 66.35 752.78 L 74.36 748.17 L 83.27 743.52 L 93.13 738.83 L 104.01 734.10 L 117.19 728.90 L 131.68 723.73 L 147.58 718.61 L 164.97 713.54 L 183.35 708.71 L 202.88 704.10 L 223.58 699.71 L 244.34 695.77 L 266.04 692.09 L 288.72 688.69 L 311.42 685.69 L 334.86 683.00 L 359.06 680.63 L 383.27 678.64 L 408.01 676.99 L 433.30 675.68 L 458.58 674.75 L 484.19 674.19 L 510.11 674.00 L 536.04 674.19 L 561.64 674.75 L 586.93 675.68 L 612.21 676.99 L 636.96 678.64 L 661.17 680.63 L 685.37 683.00 L 708.81 685.69 L 731.51 688.69 L 754.18 692.09 L 775.89 695.77 L 796.64 699.71 L 817.35 704.10 L 836.88 708.71 L 855.26 713.54 L 872.65 718.61 L 888.55 723.73 L 903.04 728.90 L 916.22 734.10 L 927.10 738.83 L 936.96 743.52 L 945.86 748.17 L 953.88 752.78 L 961.07 757.34 L 968.48 762.59 L 974.86 767.73 L 980.31 772.76 L 984.92 777.69 L 988.76 782.54 L 991.76 787.09 L 994.14 791.56 L 995.95 795.96 L 997.21 800.31 L 997.97 804.65 L 998.23 809.00 Z" fill="url(#linear-gradient-2)" fill-rule="nonzero" group-id="2,4" id="椭圆_16" node-id="27" stroke="none" target-height="270" target-width="976.23" target-x="22" target-y="674"></path></g><g node-id="108"><path d="M 823.18 676.92 L 828.19 673.96 L 832.09 671.17 L 835.05 668.53 L 837.70 665.58 L 839.70 662.81 L 841.12 660.18 L 842.73 656.07 L 843.68 652.31 L 844.97 645.39 L 845.51 643.32 L 846.28 641.49 L 847.27 639.85 L 848.55 638.46 L 850.36 637.22 L 852.84 636.15 L 858.68 634.19 L 863.73 632.33 L 868.44 630.26 L 872.37 628.04 L 874.74 626.31 L 876.78 624.38 L 878.54 622.23 L 879.98 619.86 L 881.15 617.09 L 882.04 613.85 L 883.42 619.20 L 885.05 624.06 L 888.48 633.30 L 889.87 637.86 L 890.78 642.51 L 891.04 645.66 L 890.93 649.02 L 890.41 652.62 L 889.51 656.15 L 888.01 660.11 L 885.84 664.57 L 884.04 668.30 L 882.65 672.00 L 881.63 675.69 L 880.58 681.31 L 879.98 686.88 L 879.30 697.86 L 878.83 703.21 L 878.03 708.34 L 877.21 711.67 L 876.06 714.89 L 874.58 718.02 L 872.75 720.95 L 870.38 723.81 L 867.40 726.62 L 864.06 729.06 L 860.50 731.08 L 856.73 732.70 L 852.81 733.98 L 848.83 734.95 L 844.80 735.62 L 838.76 736.18 L 833.05 736.29 L 827.54 736.06 L 822.90 735.64 L 815.76 734.57 L 813.07 734.01 L 812.00 731.72 L 809.64 725.58 L 808.41 721.55 L 807.27 716.74 L 806.48 711.71 L 806.16 706.32 L 806.29 702.70 L 806.76 699.09 L 807.60 695.46 L 808.83 691.97 L 810.57 688.58 L 812.84 685.28 L 815.54 682.33 L 818.95 679.54 L 823.18 676.92 Z" fill="url(#linear-gradient-3)" fill-rule="nonzero" group-id="2,5" id="路径_61" node-id="28" stroke="none" target-height="122.44" target-width="84.880005" target-x="806.16" target-y="613.85"></path></g><g node-id="109"><path d="M 897.16 695.16 L 901.13 694.84 L 904.37 694.29 L 906.98 693.56 L 909.50 692.54 L 911.56 691.43 L 913.23 690.24 L 915.45 688.20 L 917.16 686.17 L 920.03 682.29 L 921.49 680.71 L 923.11 679.58 L 924.31 679.11 L 925.80 678.89 L 927.65 678.97 L 933.19 679.67 L 937.83 680.02 L 940.82 679.98 L 943.50 679.61 L 945.91 678.93 L 948.14 677.85 L 950.27 676.24 L 952.32 674.02 L 951.42 678.64 L 950.93 682.92 L 950.53 687.13 L 949.92 691.14 L 949.28 693.72 L 948.28 696.30 L 946.89 698.88 L 945.16 701.24 L 942.72 703.73 L 939.42 706.37 L 936.79 708.50 L 934.50 710.77 L 932.53 713.18 L 929.91 717.04 L 927.61 720.98 L 925.39 724.92 L 923.13 728.63 L 921.48 730.97 L 919.63 733.10 L 917.59 735.02 L 915.32 736.64 L 912.63 737.98 L 909.45 739.02 L 906.10 739.57 L 902.75 739.68 L 899.38 739.35 L 894.42 738.26 L 889.74 736.63 L 885.32 734.61 L 881.57 732.56 L 875.91 728.87 L 873.79 727.25 L 873.85 724.93 L 874.04 722.53 L 874.50 719.12 L 875.25 715.52 L 876.45 711.52 L 878.12 707.61 L 880.41 703.85 L 882.27 701.58 L 884.48 699.58 L 887.07 697.82 L 889.90 696.51 L 893.23 695.61 L 897.16 695.16 Z" fill="url(#linear-gradient-4)" fill-rule="nonzero" group-id="2,6" id="路径_62" node-id="29" stroke="none" target-height="65.65997" target-width="78.53003" target-x="873.79" target-y="674.02"></path></g><g node-id="110"><g node-id="116"><path d="M 519.74 367.29 L 519.74 496.31 L 739.41 490.37 L 739.41 393.49 Z" fill="#dbdfe6" fill-rule="nonzero" group-id="2,7,13" id="路径_107" node-id="31" stroke="none" target-height="129.01999" target-width="219.66998" target-x="519.74" target-y="367.29"></path></g><g node-id="117"><path d="M 519.74 367.29 L 519.74 496.31 L 343.34 490.37 L 343.34 405.37 Z" fill="#d0d7e0" fill-rule="nonzero" group-id="2,7,14" id="路径_108" node-id="32" stroke="none" target-height="129.01999" target-width="176.4" target-x="343.34" target-y="367.29"></path></g><g node-id="118"><path d="M 545.15 432.91 L 545.15 713.48 L 739.41 675.42 L 739.41 394.35 Z" fill="url(#linear-gradient-5)" fill-rule="nonzero" group-id="2,7,15" id="路径_103" node-id="33" stroke="none" target-height="319.12997" target-width="194.25995" target-x="545.15" target-y="394.35"></path></g><g node-id="119"><path d="M 545.14 713.48 L 343.34 678.26 L 343.34 404.61 L 545.14 432.29 Z" fill="url(#linear-gradient-6)" fill-rule="nonzero" group-id="2,7,16" id="路径_104" node-id="34" stroke="none" target-height="308.87" target-width="201.80002" target-x="343.34" target-y="404.61"></path></g><g node-id="120"><path d="M 343.34 404.61 L 286.49 458.99 L 484.71 494.09 L 546.01 432.30 Z" fill="url(#linear-gradient-7)" fill-rule="nonzero" group-id="2,7,17" id="路径_105" node-id="35" stroke="none" target-height="89.48001" target-width="259.52002" target-x="286.49" target-y="404.61"></path></g><path d="M 602.98 490.37 L 797.74 448.85 L 739.90 394.48 L 544.16 432.04 Z" fill="url(#linear-gradient-8)" fill-rule="nonzero" group-id="2,7,18" id="路径_106" node-id="36" stroke="none" target-height="95.889984" target-width="253.58002" target-x="544.16" target-y="394.48"></path></g><g node-id="111"><path d="M 129.08 707.29 L 131.61 708.10 L 138.33 709.82 L 142.71 710.64 L 147.91 711.33 L 153.31 711.67 L 159.05 711.54 L 162.88 711.14 L 166.66 710.42 L 170.41 709.36 L 174.02 707.93 L 177.44 706.04 L 180.70 703.69 L 183.59 700.92 L 186.22 697.52 L 188.58 693.42 L 189.96 690.21 L 191.13 686.52 L 192.07 682.30 L 192.74 677.46 L 194.70 670.76 L 196.72 665.44 L 198.77 661.30 L 201.25 657.36 L 203.60 654.39 L 205.82 652.22 L 208.32 650.33 L 210.55 649.03 L 212.53 648.22 L 215.51 647.46 L 217.55 647.29 L 219.53 647.42 L 217.33 647.21 L 215.04 647.27 L 211.74 647.78 L 209.49 648.39 L 207.01 649.41 L 204.26 650.90 L 201.74 652.69 L 199.12 655.14 L 196.41 658.36 L 194.11 661.86 L 191.86 666.33 L 189.70 671.96 L 184.11 670.94 L 179.05 670.37 L 174.45 670.19 L 170.27 670.38 L 164.66 671.15 L 159.71 672.39 L 155.37 674.05 L 151.22 676.18 L 147.59 678.55 L 144.42 681.14 L 141.49 684.03 L 138.99 686.93 L 136.87 689.84 L 134.13 694.35 L 132.17 698.32 L 130.64 702.10 L 129.76 704.74 L 129.08 707.29 Z" fill="url(#linear-gradient-9)" fill-rule="nonzero" group-id="2,8" id="路径_109" node-id="37" stroke="none" target-height="64.45996" target-width="90.45" target-x="129.08" target-y="647.21"></path></g><g node-id="112"><path d="M 727.73 786.84 L 730.16 787.38 L 736.45 788.29 L 740.46 788.55 L 745.06 788.51 L 749.73 788.03 L 754.45 786.97 L 757.50 785.89 L 760.38 784.44 L 763.10 782.60 L 765.51 780.40 L 767.64 777.67 L 769.48 774.35 L 770.49 771.74 L 771.28 768.71 L 771.81 765.20 L 772.05 761.14 L 773.05 756.15 L 774.18 752.16 L 775.40 749.02 L 776.95 746.01 L 778.46 743.70 L 779.94 741.98 L 782.42 739.86 L 784.56 738.65 L 786.68 737.92 L 788.15 737.66 L 789.59 737.63 L 787.98 737.62 L 786.32 737.81 L 783.95 738.39 L 781.51 739.38 L 778.72 741.13 L 777.00 742.59 L 775.26 744.54 L 773.50 747.04 L 772.05 749.73 L 770.70 753.12 L 769.49 757.34 L 764.68 756.93 L 760.41 756.90 L 756.63 757.21 L 753.29 757.82 L 748.85 759.14 L 745.08 760.81 L 741.88 762.80 L 738.94 765.18 L 736.48 767.66 L 734.45 770.24 L 731.91 774.35 L 730.16 778.10 L 728.88 781.73 L 728.20 784.31 L 727.73 786.84 Z" fill="url(#linear-gradient-9)" fill-rule="nonzero" group-id="2,9" id="路径_110" node-id="38" stroke="none" target-height="50.929993" target-width="61.860046" target-x="727.73" target-y="737.62"></path></g><g node-id="113"><path d="M 585.94 280.10 L 582.14 284.07 L 578.11 287.81 L 572.44 292.58 L 566.55 297.04 L 560.43 301.21 L 555.15 304.41 L 549.72 307.29 L 544.11 309.87 L 537.69 312.26 L 531.09 314.04 L 530.72 314.98 L 528.83 318.67 L 526.21 322.43 L 522.76 326.28 L 518.34 330.25 L 512.80 334.31 L 507.01 337.97 L 500.96 341.23 L 493.69 344.68 L 486.26 347.75 L 478.66 350.42 L 477.67 350.52 L 476.76 350.24 L 476.02 349.64 L 475.54 348.77 L 475.44 347.77 L 475.72 346.86 L 476.32 346.12 L 477.20 345.64 L 477.20 345.64 L 484.54 343.04 L 491.73 340.08 L 498.76 336.74 L 505.36 333.13 L 510.89 329.58 L 515.47 326.12 L 518.76 323.19 L 521.43 320.36 L 523.55 317.62 L 525.19 314.97 L 521.60 315.16 L 518.01 314.99 L 514.25 314.31 L 511.19 313.20 L 509.36 312.16 L 507.85 310.96 L 506.62 309.58 L 505.53 307.74 L 504.81 305.74 L 504.46 303.54 L 504.49 301.30 L 504.91 298.99 L 505.74 296.57 L 506.89 294.36 L 508.33 292.37 L 510.08 290.59 L 512.13 289.10 L 514.37 288.07 L 516.84 287.48 L 519.10 287.46 L 521.26 287.88 L 523.35 288.73 L 525.63 290.23 L 527.63 292.02 L 529.37 294.13 L 529.57 294.46 L 531.09 297.80 L 532.08 301.31 L 532.53 304.92 L 532.42 308.59 L 537.36 307.10 L 542.17 305.26 L 547.43 302.85 L 552.86 299.95 L 558.47 296.52 L 563.88 292.80 L 569.33 288.65 L 574.81 284.05 L 580.01 279.10 L 584.23 274.43 L 587.59 270.04 L 590.60 265.37 L 592.92 261.10 L 594.63 257.19 L 596.03 253.12 L 596.99 249.58 L 597.57 246.50 L 598.06 241.68 L 598.08 237.86 L 597.79 234.39 L 597.42 232.15 L 596.90 230.05 L 596.77 229.06 L 597.02 228.14 L 597.59 227.38 L 598.46 226.87 L 599.45 226.74 L 600.37 226.99 L 601.13 227.57 L 601.63 228.43 L 602.29 230.99 L 602.73 233.58 L 603.07 237.52 L 603.06 241.85 L 602.51 247.26 L 601.48 252.23 L 600.04 257.04 L 598.19 261.70 L 595.91 266.24 L 592.94 271.12 L 589.62 275.73 L 585.94 280.10 Z M 512.42 295.27 L 511.24 296.83 L 510.33 298.56 L 509.61 300.85 L 509.43 302.96 L 509.78 304.94 L 510.63 306.59 L 511.86 307.80 L 513.68 308.83 L 515.83 309.55 L 518.53 310.01 L 522.87 310.12 L 527.18 309.68 L 527.56 306.40 L 527.35 303.14 L 526.57 299.96 L 525.23 296.94 L 523.76 295.23 L 521.93 293.69 L 520.54 292.91 L 519.05 292.50 L 517.41 292.44 L 515.51 292.99 L 513.87 293.92 L 512.42 295.27 Z" fill="#e1e6ed" fill-rule="nonzero" group-id="2,10" id="路径_77" node-id="39" stroke="none" target-height="123.77998" target-width="127.630005" target-x="475.44" target-y="226.74"></path></g><g node-id="114"><path d="M 733.95 236.65 L 729.85 236.37 L 725.94 235.72 L 722.19 234.70 L 718.59 233.33 L 715.12 231.60 L 711.89 229.59 L 708.88 227.30 L 706.08 224.71 L 703.54 221.87 L 701.29 218.83 L 699.34 215.57 L 697.67 212.07 L 696.35 208.45 L 695.39 204.68 L 694.80 200.76 L 694.59 196.65 L 694.80 192.55 L 695.39 188.62 L 696.35 184.86 L 697.67 181.24 L 699.34 177.74 L 701.29 174.48 L 703.54 171.43 L 706.08 168.59 L 708.88 166.01 L 711.89 163.71 L 715.12 161.71 L 718.59 159.98 L 722.19 158.61 L 725.94 157.59 L 729.85 156.94 L 733.95 156.66 L 738.97 156.98 L 743.85 157.93 L 748.62 159.51 L 748.51 156.66 L 748.72 152.42 L 749.39 148.34 L 750.54 144.38 L 752.14 140.58 L 754.15 137.03 L 756.58 133.71 L 759.38 130.68 L 762.53 128.00 L 766.06 125.64 L 769.85 123.73 L 773.74 122.31 L 777.75 121.36 L 781.84 120.89 L 785.92 120.89 L 790.02 121.36 L 794.02 122.31 L 797.91 123.73 L 801.70 125.64 L 805.23 128.00 L 808.38 130.68 L 811.18 133.71 L 813.61 137.03 L 815.62 140.58 L 817.22 144.38 L 818.37 148.34 L 819.05 152.42 L 819.25 156.66 L 818.96 161.29 L 818.09 165.78 L 816.64 170.19 L 819.46 168.64 L 822.37 167.37 L 825.39 166.37 L 828.50 165.66 L 831.65 165.22 L 834.86 165.08 L 839.73 165.47 L 844.32 166.44 L 848.66 168.00 L 852.78 170.11 L 856.52 172.66 L 859.92 175.69 L 862.91 179.13 L 865.43 182.89 L 867.49 187.03 L 869.00 191.39 L 869.93 195.99 L 870.26 200.86 L 869.93 205.74 L 869.00 210.34 L 867.49 214.70 L 865.43 218.84 L 862.91 222.60 L 859.92 226.04 L 856.52 229.07 L 852.78 231.62 L 848.66 233.73 L 844.32 235.29 L 839.73 236.26 L 834.86 236.65 Z" fill="url(#linear-gradient-11)" fill-rule="nonzero" group-id="2,11" id="联合_69" node-id="40" stroke="none" target-height="115.759995" target-width="175.66998" target-x="694.59" target-y="120.89"></path></g><path d="M 180.53 276.15 L 176.85 275.89 L 173.39 275.17 L 170.11 274.00 L 167.01 272.41 L 164.18 270.47 L 161.61 268.15 L 159.34 265.53 L 157.44 262.65 L 155.87 259.48 L 154.73 256.14 L 154.02 252.61 L 153.77 248.86 L 154.02 245.11 L 154.73 241.58 L 155.87 238.23 L 157.44 235.06 L 159.34 232.18 L 161.61 229.56 L 164.18 227.25 L 167.01 225.30 L 170.11 223.71 L 173.39 222.54 L 176.85 221.83 L 180.53 221.57 L 183.93 221.78 L 187.23 222.43 L 190.46 223.51 L 190.38 221.57 L 190.50 218.68 L 190.95 215.90 L 191.72 213.21 L 192.79 210.63 L 194.15 208.21 L 195.79 205.94 L 197.68 203.88 L 199.82 202.05 L 202.22 200.44 L 204.79 199.14 L 207.43 198.17 L 210.16 197.52 L 212.94 197.20 L 215.71 197.20 L 218.49 197.52 L 221.22 198.17 L 223.86 199.14 L 226.43 200.44 L 228.83 202.05 L 230.96 203.88 L 232.86 205.94 L 234.50 208.21 L 235.86 210.63 L 236.93 213.21 L 237.70 215.90 L 238.15 218.68 L 238.27 221.57 L 238.07 224.72 L 237.48 227.79 L 236.50 230.80 L 239.38 229.29 L 242.42 228.20 L 245.58 227.53 L 248.83 227.31 L 252.13 227.61 L 255.24 228.29 L 258.17 229.37 L 260.95 230.82 L 263.48 232.57 L 265.78 234.64 L 267.80 236.97 L 269.50 239.54 L 270.89 242.34 L 271.91 245.30 L 272.53 248.42 L 272.76 251.73 L 272.53 255.04 L 271.91 258.16 L 270.89 261.12 L 269.50 263.92 L 267.80 266.49 L 265.78 268.82 L 263.48 270.89 L 260.95 272.64 L 258.17 274.09 L 255.24 275.17 L 252.13 275.85 L 248.83 276.15 Z" fill="url(#linear-gradient-11)" fill-rule="nonzero" group-id="2,12" id="联合_70" node-id="41" stroke="none" target-height="78.95" target-width="118.990005" target-x="153.77" target-y="197.2"></path></g></svg>