<svg xmlns="http://www.w3.org/2000/svg" viewBox="0 0 60 62" class="design-iconfont">
  <g fill="none" fill-rule="evenodd">
    <path fill="#FFEC6B" opacity=".2" d="M14 0.8660253999999998A14 14 0 1 0 14 28.866025399999998A14 14 0 1 0 14 0.8660253999999998Z" transform="translate(0 1)"/>
    <path fill="#FFEC6B" opacity=".5" d="M14 7.8660254A7 7 0 1 0 14 21.866025399999998A7 7 0 1 0 14 7.8660254Z" transform="translate(0 1)"/>
    <path d="M26.2913324,50.5834367 C19.6641194,48.1111643 14.1364869,39.6511892 11.3699361,34.6958731 C10.1754167,32.5563986 10.8046499,29.9282891 12.7216587,28.3984543 C14.8584154,26.6933377 17.9386712,26.8634436 19.8736301,28.793643 L22.0842904,30.9988657 L21.2366526,11.7256476 C21.2366526,9.79418926 22.8063,8.22840281 24.7425209,8.22840281 C26.6787419,8.22840281 28.2483893,9.79418926 28.2483893,11.7256476 L29.096027,23.3049271 C29.096027,21.3734687 30.6656744,19.8076823 32.6018953,19.8076823 C34.5381163,19.8076823 36.1077637,21.3734687 36.1077637,23.3049271 L36.1077637,26.1027229 C36.1077637,24.1712646 37.677411,22.6054781 39.613632,22.6054781 C41.5498529,22.6054781 43.1195003,24.1712646 43.1195003,26.1027229 L43.1195003,28.9005188 C43.1195003,26.9690604 44.6891476,25.403274 46.6253686,25.403274 C48.5615895,25.403274 50.1312369,26.9690604 50.1312369,28.9005188 L50.1312369,39.9070477 C50.1312369,41.4042881 49.7601758,42.8839025 48.8950677,44.1075185 C47.459625,46.1375992 44.8794462,49.2315417 41.7171529,50.5834367 C36.8089373,52.6817835 32.4197304,52.8696555 26.2913324,50.5834367 Z" stroke="#FFE9DB" stroke-width="2" fill="#FFE9DB" fill-rule="nonzero" stroke-linecap="round" stroke-linejoin="round" transform="rotate(-30 32.3130254 30.7284)"/>
  </g>
</svg>
