<svg xmlns="http://www.w3.org/2000/svg" viewBox="0 0 36 36" class="design-iconfont">
  <defs>
    <linearGradient x1="50%" y1="0%" x2="50%" y2="100%" id="uj8aj4q9u__v1hlhb35oa">
      <stop stop-color="#FFEF6F" offset="0%"/>
      <stop stop-color="#FFC731" offset="100%"/>
    </linearGradient>
    <filter x="-24.5%" y="-26.3%" width="149%" height="145.5%" filterUnits="objectBoundingBox" id="uj8aj4q9u__m9okyppdjb">
      <feGaussianBlur stdDeviation="4" in="SourceGraphic"/>
    </filter>
  </defs>
  <g transform="translate(-81 -482)" fill="url(#uj8aj4q9u__v1hlhb35oa)" fill-rule="evenodd">
    <path d="M17.0693177,27.4892886 L11.0068098,30.6765377 C10.0291206,31.1905393 8.81986628,30.8146463 8.30586467,29.8369571 C8.10118653,29.4476361 8.03055718,29.0017 8.10491086,28.5681847 L9.26274686,21.8174829 C9.37402273,21.1686947 9.15892577,20.5066943 8.68755359,20.04722 L3.78288161,15.2663464 C2.99191445,14.495344 2.97572984,13.2291175 3.74673226,12.4381503 C4.05374947,12.1231831 4.45603429,11.9182087 4.89130836,11.8549597 L11.6693983,10.8700455 C12.3208187,10.7753886 12.8839498,10.3662499 13.1752739,9.77596294 L16.2065278,3.6339715 C16.6953724,2.64346418 17.8946241,2.23678618 18.8851314,2.72563077 C19.2795566,2.92029125 19.5988117,3.23954629 19.7934722,3.6339715 L22.8247261,9.77596294 C23.1160502,10.3662499 23.6791813,10.7753886 24.3306017,10.8700455 L31.1086916,11.8549597 C32.2017814,12.0137949 32.9591443,13.0286806 32.800309,14.1217703 C32.73706,14.5570444 32.5320857,14.9593292 32.2171184,15.2663464 L27.3124464,20.04722 C26.8410742,20.5066943 26.6259773,21.1686947 26.7372531,21.8174829 L27.8950891,28.5681847 C28.0818112,29.6568576 27.3506355,30.6907695 26.2619626,30.8774915 C25.8284474,30.9518452 25.3825112,30.8812158 24.9931902,30.6765377 L18.9306823,27.4892886 C18.3480342,27.1829724 17.6519658,27.1829724 17.0693177,27.4892886 Z" opacity=".25" filter="url(#uj8aj4q9u__m9okyppdjb)" transform="translate(81 482)"/>
    <path d="M17.1935017,28.2553964 L10.5620908,31.1776339 C9.55131006,31.6230507 8.37082876,31.1647326 7.92541202,30.1539518 C7.78592782,29.8374214 7.73092165,29.4901261 7.76576573,29.1459848 L8.4957601,21.9361173 C8.55232284,21.3774693 8.37144198,20.8207752 7.99731671,20.4020663 L3.16888504,14.9982408 C2.43292012,14.1745725 2.50401773,12.91024 3.327686,12.1742751 C3.58562132,11.9438045 3.89892094,11.7841704 4.23698617,11.7109635 L11.3195584,10.1772578 C11.868343,10.0584205 12.3418953,9.71436464 12.6245001,9.22916217 L16.2717761,2.96717687 C16.8277055,2.01270514 18.0521275,1.68962276 19.0065992,2.24555217 C19.3054962,2.41964389 19.5541322,2.66827988 19.7282239,2.96717687 L23.3754999,9.22916217 C23.6581047,9.71436464 24.131657,10.0584205 24.6804416,10.1772578 L31.7630138,11.7109635 C32.842562,11.9447358 33.5281988,13.0093925 33.2944265,14.0889406 C33.2212197,14.4270059 33.0615856,14.7403055 32.831115,14.9982408 L28.0026833,20.4020663 C27.628558,20.8207752 27.4476772,21.3774693 27.5042399,21.9361173 L28.2342343,29.1459848 C28.3455023,30.2449358 27.5448272,31.2260122 26.4458762,31.3372802 C26.1017349,31.3721243 25.7544396,31.3171181 25.4379092,31.1776339 L18.8064983,28.2553964 C18.2926714,28.0289703 17.7073286,28.0289703 17.1935017,28.2553964 Z" transform="translate(81 482)"/>
  </g>
</svg>
