<svg xmlns="http://www.w3.org/2000/svg" viewBox="0 0 36 36" class="design-iconfont">
  <path d="M17.6173007,2.5234171 C17.98848,2.42547581 18.3970225,2.46913463 18.7549494,2.67760815 C18.9791222,2.80817695 19.1655992,2.99465394 19.296168,3.21882668 L22.9434439,9.48081198 C23.2967,10.0873151 23.8886403,10.5173849 24.5746211,10.6659316 L31.6571933,12.1996373 C32.0620239,12.2873019 32.392996,12.5307573 32.6008444,12.8535042 C32.8086928,13.1762511 32.8934174,13.5782895 32.8057528,13.9831201 C32.7508477,14.236669 32.6311221,14.4716437 32.4582691,14.6650952 L27.6298375,20.0689207 C27.1621809,20.5923069 26.9360798,21.2881745 27.0067832,21.9864845 L27.7367776,29.196352 C27.7785031,29.6084586 27.6492393,29.9984637 27.4065174,30.2958736 C27.1637955,30.5932834 26.8076156,30.798098 26.395509,30.8398235 C26.1374031,30.8659566 25.8769316,30.824702 25.6395338,30.7200888 L19.0081229,27.7978513 C18.3658392,27.5148187 17.6341608,27.5148187 16.9918771,27.7978513 L10.3604662,30.7200888 C9.98142343,30.8871201 9.5705618,30.8847011 9.21270304,30.7457636 C8.85484428,30.6068261 8.5499884,30.33137 8.38295713,29.9523273 C8.27834398,29.7149295 8.23708935,29.454458 8.26322241,29.196352 L8.99321678,21.9864845 C9.06392021,21.2881745 8.83781913,20.5923069 8.37016254,20.0689207 L3.54173087,14.6650952 C3.26574402,14.3562196 3.1410814,13.9647195 3.1626344,13.5814415 C3.18418739,13.1981636 3.35195599,12.8231078 3.66083159,12.547121 C3.85428308,12.374268 4.0892578,12.2545424 4.34280672,12.1996373 L11.4253789,10.6659316 C12.1113597,10.5173849 12.7033,10.0873151 13.0565561,9.48081198 L16.703832,3.21882668 C16.9123056,2.86089978 17.2461215,2.62135839 17.6173007,2.5234171 Z" fill="#FFF" stroke="#FFF" fill-rule="evenodd" fill-opacity=".16" stroke-opacity=".5"/>
</svg>
